# xmcd
#
# Track frame offsets: 
#        150
#        25053
#        39050
#        61770
#        96724
#        115006
#        127717
#        150219
#        167528
#        187168
#
# Disc length: 2792 seconds
#
# Revision: 0
# Processed by: cddbd v1.5.1PL2 Copyright (c) Steve Scherf et al.
# Submitted via: ExactAudioCopy v0.90b4
#
DISCID=6c0ae60a
DTITLE=Dirty Monster Blues - Key to the Highway
DYEAR=2004
DGENRE=Blues
TTITLE0=Dust my Blues
TTITLE1=I'm torn down
TTITLE2=Take me to the river
TTITLE3=Stormy Monday
TTITLE4=Good morning little school girl
TTITLE5=Key to the highway
TTITLE6=The thrill is gone
TTITLE7=Screamin'
TTITLE8=Treat her right
TTITLE9=Rollin' and tumblin'
EXTD=
EXTT0=
EXTT1=
EXTT2=
EXTT3=
EXTT4=
EXTT5=
EXTT6=
EXTT7=
EXTT8=
EXTT9=
PLAYORDER=
